#!OML:ASF I:\Actors\actors\Patient Classification 2\Patient 1\Session 1\actor1.ASF
:FULLY-SPECIFIED
:DEGREES
181
root -0.688256 18.7187 5.7769 1.88295 0.786302 -2.96694
lowerback 7.31439 1.41847 -0.109549
upperback -3.01594 1.7691 -1.7326
thorax -7.2204 0.827941 -1.99502
lowerneck -10.5414 -8.60413 -4.92138
upperneck 8.10046 -11.8477 8.95905
head 4.99128 -5.45826 2.61865
rclavicle 5.59082e-015 3.18055e-015
rhumerus 14.5871 -10.3121 -35.4281
rradius 93.6097
rwrist -0.630194
rhand -24.3116 -35.2704
rfingers 7.12502
rthumb 2.17645 -65.239
lclavicle 5.59082e-015 3.18055e-015
lhumerus -47.0242 -1.65398 85.0889
lradius 46.1614
lwrist -2.30584
lhand -5.34344 -25.5795
lfingers 7.12502
lthumb 20.4634 3.36213
rfemur 0 0 0
rtibia 0
rfoot 0 0
rtoes 0
lfemur -6.01337 -7.55199 -10.9345
ltibia 22.1757
lfoot -21.9804 12.8347
ltoes -55.7284
182
root -0.687631 18.7184 5.77546 1.84455 0.625041 -2.9166
lowerback 7.23125 1.41399 -0.20574
upperback -2.95009 1.75735 -1.69651
thorax -7.10651 0.828774 -1.89692
lowerneck -10.6839 -8.56479 -4.94978
upperneck 8.26037 -11.8092 9.03939
head 5.0687 -5.42711 2.64253
rclavicle 2.21148e-015 1.59028e-015
rhumerus 15.0108 -10.1545 -35.5769
rradius 93.6325
rwrist -0.454036
rhand -23.814 -35.1048
rfingers 7.12502
rthumb 2.657 -65.068
lclavicle 2.21148e-015 1.59028e-015
lhumerus -46.8716 -1.62128 85.1272
lradius 45.8856
lwrist -2.50621
lhand -4.93294 -25.416
lfingers 7.12502
lthumb 20.8578 3.48274
rfemur 0 0 0
rtibia 0
rfoot 0 0
rtoes 0
lfemur -5.90603 -7.44679 -11.0116
ltibia 22.1146
lfoot -21.9379 12.9368
ltoes -55.8226
183
root -0.686206 18.7183 5.77391 1.77944 0.442125 -2.83144
lowerback 7.17759 1.47229 -0.33277
upperback -2.87635 1.82488 -1.68386
thorax -6.99945 0.869069 -1.81735
lowerneck -10.7319 -8.57737 -4.97137
upperneck 8.29732 -11.8351 9.12201
head 5.0967 -5.43293 2.66584
rclavicle 9.95166e-015 -4.77083e-015
rhumerus 15.2525 -10.3061 -35.7503
rradius 93.7995
rwrist -0.472434
rhand -23.137 -35.1037
rfingers 7.12502
rthumb 3.31078 -65.0578
lclavicle 9.95166e-015 -4.77083e-015
lhumerus -46.5468 -1.81752 85.2491
lradius 45.4656
lwrist -2.92082
lhand -4.24162 -25.2487
lfingers 7.12502
lthumb 21.5219 3.57554
rfemur 0 0 0
rtibia 0
rfoot 0 0
rtoes 0
lfemur -5.76792 -7.36266 -11.1376
ltibia 22.0679
lfoot -21.9292 13.0172
ltoes -55.8055
184
root -0.684625 18.7191 5.76958 1.7335 0.305922 -2.78508
lowerback 7.19571 1.56475 -0.366117
upperback -2.8588 1.944 -1.7021
thorax -6.98858 0.928715 -1.83341
lowerneck -10.6535 -8.60951 -4.97036
upperneck 8.26179 -11.8852 9.17604
head 5.0798 -5.45738 2.68097
rclavicle -1.19022e-014 -4.77083e-015
rhumerus 15.3562 -10.7303 -36.023
rradius 94.0125
rwrist -0.574529
rhand -22.5851 -35.1339
rfingers 7.12502
rthumb 3.84378 -65.0789
lclavicle -1.19022e-014 -4.77083e-015
lhumerus -46.2817 -2.35546 85.4553
lradius 45.1406
lwrist -3.38117
lhand -3.42576 -24.9401
lfingers 7.12502
lthumb 22.3053 3.79254
rfemur 0 0 0
rtibia 0
rfoot 0 0
rtoes 0
lfemur -5.67619 -7.2652 -11.2053
ltibia 22.0328
lfoot -21.9153 13.0121
ltoes -55.7457
185
root -0.681865 18.7188 5.76398 1.70595 0.199473 -2.8249
lowerback 7.2517 1.66977 -0.27958
upperback -2.86677 2.09197 -1.70988
thorax -7.02199 0.996958 -1.91173
lowerneck -10.5763 -8.67262 -4.99666
upperneck 8.2258 -11.9716 9.21816
head 5.06636 -5.50113 2.69307
rclavicle 5.96975e-015 1.51076e-014
rhumerus 15.4706 -11.3885 -36.4079
rradius 94.1542
rwrist -0.586477
rhand -22.7887 -34.9362
rfingers 7.12502
rthumb 3.64717 -64.8847
lclavicle 5.96975e-015 1.51076e-014
lhumerus -46.0535 -2.9368 85.6767
lradius 44.9113
lwrist -3.86526
lhand -2.53563 -24.5884
lfingers 7.12502
lthumb 23.1596 4.03942
rfemur 0 0 0
rtibia 0
rfoot 0 0
rtoes 0
lfemur -5.62754 -7.06042 -11.1652
ltibia 21.9998
lfoot -21.8114 12.9226
ltoes -55.752
186
root -0.678745 18.7178 5.7605 1.67508 0.103679 -2.86918
lowerback 7.32545 1.76766 -0.189357
upperback -2.88084 2.23188 -1.69853
thorax -7.07248 1.0613 -1.97211
lowerneck -10.5142 -8.74443 -5.14725
upperneck 8.22254 -12.0602 9.31151
head 5.07658 -5.54542 2.73819
rclavicle 3.40543e-014 -7.15625e-015
rhumerus 15.6346 -12.116 -36.7161
rradius 94.1847
rwrist -0.211303
rhand -23.5156 -34.7574
rfingers 7.12502
rthumb 2.9452 -64.7168
lclavicle 3.40543e-014 -7.15625e-015
lhumerus -45.8401 -3.27853 85.8451
lradius 44.7523
lwrist -4.40766
lhand -1.73539 -24.3164
lfingers 7.12502
lthumb 23.9272 4.21283
rfemur 0 0 0
rtibia 0
rfoot 0 0
rtoes 0
lfemur -5.58579 -6.88988 -11.1283
ltibia 21.985
lfoot -21.7512 12.8928
ltoes -55.8116
187
root -0.6763 18.7177 5.75814 1.66271 0.0314917 -2.88169
lowerback 7.39731 1.83708 -0.137184
upperback -2.91624 2.32969 -1.68814
thorax -7.14706 1.1063 -2.00748
lowerneck -10.4851 -8.7901 -5.27362
upperneck 8.30467 -12.1208 9.38201
head 5.11386 -5.57342 2.7726
rclavicle 1.97542e-014 5.56597e-015
rhumerus 15.8755 -12.7718 -36.8429
rradius 93.9943
rwrist 0.547596
rhand -24.556 -34.1856
rfingers 7.12502
rthumb 1.94036 -64.1566
lclavicle 1.97542e-014 5.56597e-015
lhumerus -45.7495 -3.43834 85.9399
lradius 44.7384
lwrist -4.77016
lhand -1.29085 -24.2129
lfingers 7.12502
lthumb 24.3534 4.25969
rfemur 0 0 0
rtibia 0
rfoot 0 0
rtoes 0
lfemur -5.56238 -6.86499 -11.1336
ltibia 21.9855
lfoot -21.8054 12.954
ltoes -55.8482
188
root -0.674549 18.7173 5.75663 1.68864 -0.00313594 -2.93436
lowerback 7.42432 1.86504 -0.053418
upperback -2.96066 2.37722 -1.65727
thorax -7.2064 1.12579 -2.03091
lowerneck -10.4891 -8.81783 -5.23857
upperneck 8.39254 -12.164 9.32305
head 5.13877 -5.59446 2.74344
rclavicle -2.20527e-014 2.06736e-014
rhumerus 16.2439 -13.2381 -36.7073
rradius 93.4163
rwrist 1.30642
rhand -25.9865 -32.9938
rfingers 7.12502
rthumb 0.558801 -62.9728
lclavicle -2.20527e-014 2.06736e-014
lhumerus -45.7677 -3.41562 85.9632
lradius 44.8327
lwrist -4.81006
lhand -1.24545 -24.3317
lfingers 7.12502
lthumb 24.3969 4.13508
rfemur 0 0 0
rtibia 0
rfoot 0 0
rtoes 0
lfemur -5.57448 -6.89512 -11.0849
ltibia 21.981
lfoot -21.86 13.0105
ltoes -55.8362
189
root -0.673159 18.7163 5.75703 1.73198 -0.0256852 -2.99579
lowerback 7.39068 1.85015 0.0410866
upperback -2.97997 2.37086 -1.60465
thorax -7.20605 1.11963 -2.02697
lowerneck -10.4671 -8.81436 -5.15333
upperneck 8.36699 -12.1539 9.19418
head 5.11256 -5.59593 2.69376
rclavicle -8.80865e-015 -6.36111e-015
rhumerus 16.7767 -13.4127 -36.2069
rradius 92.4341
rwrist 1.93593
rhand -27.4427 -31.972
rfingers 7.12502
rthumb -0.847634 -61.9501
lclavicle -8.80865e-015 -6.36111e-015
lhumerus -45.8124 -3.17616 85.9324
lradius 44.9698
lwrist -4.62749
lhand -1.55837 -24.4154
lfingers 7.12502
lthumb 24.0969 4.09143
rfemur 0 0 0
rtibia 0
rfoot 0 0
rtoes 0
lfemur -5.59909 -6.95287 -11.0213
ltibia 21.9704
lfoot -21.9347 13.0826
ltoes -55.8143
190
root -0.672036 18.7163 5.75842 1.77779 -0.0412058 -2.98467
lowerback 7.3145 1.7979 0.0675959
upperback -2.98435 2.30736 -1.55906
thorax -7.16953 1.08887 -1.98249
lowerneck -10.4144 -8.7578 -4.98522
upperneck 8.29012 -12.0711 8.99156
head 5.05037 -5.56604 2.61851
rclavicle -1.79776e-014 7.95139e-015
rhumerus 17.4102 -13.3652 -35.4119
rradius 91.2514
rwrist 2.59805
rhand -28.6479 -31.0674
rfingers 7.12502
rthumb -2.01166 -61.0376
lclavicle -1.79776e-014 7.95139e-015
lhumerus -45.8794 -2.74945 85.8317
lradius 45.0905
lwrist -4.43247
lhand -2.1697 -24.4447
lfingers 7.12502
lthumb 23.5106 4.13854
rfemur 0 0 0
rtibia 0
rfoot 0 0
rtoes 0
lfemur -5.62307 -6.98135 -11.0343
ltibia 21.9455
lfoot -21.9979 13.1426
ltoes -55.8318
191
root -0.670563 18.7164 5.75985 1.81883 -0.0292262 -2.9307
lowerback 7.24205 1.73017 0.0428172
upperback -2.99684 2.21872 -1.49834
thorax -7.14708 1.04832 -1.89063
lowerneck -10.3339 -8.66961 -4.87132
upperneck 8.21459 -11.9513 8.88965
head 4.99175 -5.51436 2.58662
rclavicle 4.99446e-015 -7.95139e-015
rhumerus 18.0778 -13.1189 -33.9299
rradius 89.8461
rwrist 3.35604
rhand -29.3085 -29.9836
rfingers 7.12502
rthumb -2.64961 -59.9469
lclavicle 4.99446e-015 -7.95139e-015
lhumerus -46.0006 -2.21171 85.7215
lradius 45.1854
lwrist -4.284
lhand -2.76099 -24.6094
lfingers 7.12502
lthumb 22.9433 4.04536
rfemur 0 0 0
rtibia 0
rfoot 0 0
rtoes 0
lfemur -5.63614 -7.00148 -11.0957
ltibia 21.8957
lfoot -22.0122 13.1729
ltoes -55.8279
192
root -0.668843 18.7162 5.76075 1.8365 0.0073049 -2.86858
lowerback 7.22669 1.68169 0.0477585
upperback -3.0155 2.15679 -1.46162
thorax -7.16115 1.01846 -1.84667
lowerneck -10.2589 -8.61253 -4.91848
upperneck 8.19073 -11.8845 9.02871
head 4.97933 -5.47775 2.64579
rclavicle 6.85807e-015 -1.59028e-015
rhumerus 18.578 -12.9691 -32.2932
rradius 88.2572
rwrist 4.7876
rhand -29.2339 -28.3702
rfingers 7.12502
rthumb -2.57758 -58.3343
lclavicle 6.85807e-015 -1.59028e-015
lhumerus -46.1516 -1.8269 85.649
lradius 45.254
lwrist -4.12221
lhand -3.17921 -24.7503
lfingers 7.12502
lthumb 22.542 3.9538
rfemur 0 0 0
rtibia 0
rfoot 0 0
rtoes 0
lfemur -5.62395 -7.08968 -11.1752
ltibia 21.8441
lfoot -22.0422 13.2077
ltoes -55.7653
